<svg width="32" height="32" viewBox="0 0 32 32" fill="none" xmlns="http://www.w3.org/2000/svg">
  <!-- Background circle -->
  <circle cx="16" cy="16" r="15" fill="#10B981" stroke="#059669" stroke-width="2"/>
  
  <!-- Medical cross -->
  <rect x="14" y="8" width="4" height="16" fill="white" rx="2"/>
  <rect x="8" y="14" width="16" height="4" fill="white" rx="2"/>
  
  <!-- Stethoscope curve -->
  <path d="M22 12C22 10.8954 21.1046 10 20 10C18.8954 10 18 10.8954 18 12C18 13.1046 18.8954 14 20 14C21.1046 14 22 13.1046 22 12Z" fill="white"/>
  <path d="M14 12C14 10.8954 13.1046 10 12 10C10.8954 10 10 10.8954 10 12C10 13.1046 10.8954 14 12 14C13.1046 14 14 13.1046 14 12Z" fill="white"/>
  <path d="M20 12C20 12.5523 19.5523 13 19 13C18.4477 13 18 12.5523 18 12C18 11.4477 18.4477 11 19 11C19.5523 11 20 11.4477 20 12Z" fill="#10B981"/>
  <path d="M12 12C12 12.5523 11.5523 13 11 13C10.4477 13 10 12.5523 10 12C10 11.4477 10.4477 11 11 11C11.5523 11 12 11.4477 12 12Z" fill="#10B981"/>
  
  <!-- Stethoscope tube -->
  <path d="M16 16L16 20" stroke="white" stroke-width="2" stroke-linecap="round"/>
  <path d="M16 20C16 20 18 20 18 18" stroke="white" stroke-width="2" stroke-linecap="round"/>
  <path d="M16 20C16 20 14 20 14 18" stroke="white" stroke-width="2" stroke-linecap="round"/>
</svg> 